<svg width="180" height="90" viewBox="0 0 180 90" fill="none" xmlns="http://www.w3.org/2000/svg">
<path d="M0 0H180V90H0V0Z" fill="#02001F"/>
<path fill-rule="evenodd" clip-rule="evenodd" d="M22.2286 12.901C29.8393 7.95051 40.1129 5.17499 52.7955 8.55177L52.7943 8.55615L52.8071 8.55409C52.8149 8.55285 52.8207 8.55193 52.8247 8.55131L52.8292 8.55062L52.8303 8.55044C52.8306 8.5504 52.8308 8.55037 52.8401 8.61165C52.8494 8.67293 52.8493 8.67295 52.8491 8.67298L52.8481 8.67314L52.8438 8.6738L52.8351 8.67516L52.8267 8.6765C52.8115 8.67893 52.7887 8.68263 52.7586 8.68768C52.6984 8.69778 52.6089 8.71328 52.492 8.73486C52.2584 8.778 51.9154 8.8454 51.4788 8.94237C50.6055 9.13631 49.3575 9.44848 47.8597 9.92125C44.8639 10.8669 40.87 12.4546 36.8766 15.0229C28.8916 20.1585 20.9081 29.2143 20.9081 44.9058C20.9081 60.6504 28.9219 69.7368 36.9372 74.8898C40.9458 77.4668 44.9548 79.0599 47.9619 80.0087C49.4654 80.4831 50.7181 80.7963 51.5948 80.9909C52.0331 81.0882 52.3773 81.1558 52.6119 81.1991C52.7291 81.2208 52.819 81.2363 52.8794 81.2465C52.9096 81.2515 52.9325 81.2552 52.9478 81.2577C52.9554 81.2589 52.9612 81.2598 52.965 81.2604L52.9692 81.2611L52.9703 81.2612C52.9705 81.2613 52.9706 81.2613 52.9613 81.3225C52.9548 81.3654 52.9527 81.3783 52.952 81.3821C52.9517 81.3838 52.9516 81.3838 52.9515 81.3838L52.9504 81.3836L52.9459 81.3829C52.9419 81.3823 52.936 81.3813 52.9282 81.3801L52.9147 81.3779L52.9159 81.3826C32.768 86.4789 18.6247 77.144 10.9782 65.785C3.32953 54.4226 3.57375 40.9233 7.63905 30.2924C9.67344 24.9725 14.6201 17.8501 22.2286 12.901ZM22.2963 13.0049C29.8293 8.1049 39.9814 5.34137 52.5116 8.60522C52.498 8.60771 52.484 8.61028 52.4695 8.61295C52.2345 8.65635 51.8901 8.72405 51.4519 8.82136C50.5755 9.01597 49.324 9.32905 47.8223 9.80304C44.8192 10.751 40.8146 12.3428 36.8095 14.9187C28.7975 20.0716 20.784 29.1629 20.784 44.9058C20.784 60.7018 28.8279 69.8238 36.8701 74.994C40.8903 77.5786 44.9101 79.1758 47.9246 80.1269C49.4319 80.6025 50.6882 80.9167 51.5679 81.1119C52.0077 81.2096 52.3534 81.2775 52.5893 81.321L52.6251 81.3276C32.6766 86.2628 18.6716 76.9916 11.0812 65.7158C3.45998 54.3943 3.70051 40.9391 7.75492 30.3367C9.78039 25.0401 14.7107 17.9391 22.2963 13.0049Z" fill="#FFD809"/>
<path d="M52.5116 8.60522C39.9814 5.34137 29.8293 8.1049 22.2963 13.0049C14.7107 17.9391 9.78039 25.0401 7.75492 30.3367C3.70051 40.9391 3.45998 54.3943 11.0812 65.7158C18.6716 76.9916 32.6766 86.2628 52.6251 81.3276L52.5893 81.321C52.3534 81.2775 52.0077 81.2096 51.5679 81.1119C50.6882 80.9167 49.4319 80.6025 47.9246 80.1269C44.9101 79.1758 40.8903 77.5786 36.8701 74.994C28.8279 69.8238 20.784 60.7018 20.784 44.9058C20.784 29.1629 28.7975 20.0716 36.8095 14.9187C40.8146 12.3428 44.8192 10.751 47.8223 9.80304C49.324 9.32905 50.5755 9.01597 51.4519 8.82136C51.8901 8.72405 52.2345 8.65635 52.4695 8.61295C52.484 8.61028 52.498 8.60771 52.5116 8.60522Z" fill="#FFD809"/>
<path d="M49.745 15.124L50.4691 17.3083L52.8125 17.3083L50.9167 18.6582L51.6408 20.8426L49.745 19.4926L47.8492 20.8426L48.5733 18.6582L46.6775 17.3083L49.0209 17.3083L49.745 15.124Z" fill="#7E69FF"/>
<path d="M36.8436 27.3967L37.5677 29.581L39.9111 29.581L38.0152 30.931L38.7394 33.1153L36.8436 31.7653L34.9477 33.1153L35.6719 30.931L33.7761 29.581L36.1194 29.581L36.8436 27.3967Z" fill="#7E69FF"/>
<path d="M43.2943 48.595L44.0184 50.7793L46.3618 50.7793L44.466 52.1293L45.1901 54.3136L43.2943 52.9637L41.3985 54.3136L42.1226 52.1293L40.2268 50.7793L42.5702 50.7793L43.2943 48.595Z" fill="#7E69FF"/>
<path d="M68.2288 48.595L68.953 50.7793L71.2963 50.7793L69.4005 52.1293L70.1246 54.3136L68.2288 52.9637L66.333 54.3136L67.0571 52.1293L65.1613 50.7793L67.5047 50.7793L68.2288 48.595Z" fill="#7E69FF"/>
<path d="M58.0565 67.0661L58.7807 69.2504L61.124 69.2504L59.2282 70.6004L59.9523 72.7847L58.0565 71.4347L56.1607 72.7847L56.8848 70.6004L54.989 69.2504L57.3324 69.2504L58.0565 67.0661Z" fill="#7E69FF"/>
<path d="M83.8594 76.4876L84.5836 78.6719L86.9269 78.6719L85.0311 80.0219L85.7553 82.2062L83.8594 80.8562L81.9636 82.2062L82.6878 80.0219L80.7919 78.6719L83.1353 78.6719L83.8594 76.4876Z" fill="#7E69FF"/>
<path d="M68.2288 33.719L68.953 35.9033L71.2963 35.9033L69.4005 37.2533L70.1246 39.4376L68.2288 38.0876L66.333 39.4376L67.0571 37.2533L65.1613 35.9033L67.5047 35.9033L68.2288 33.719Z" fill="#7E69FF"/>
<path d="M83.8594 21.4463L84.5836 23.6306L86.9269 23.6306L85.0311 24.9806L85.7553 27.1649L83.8594 25.8149L81.9636 27.1649L82.6878 24.9806L80.7919 23.6306L83.1353 23.6306L83.8594 21.4463Z" fill="#7E69FF"/>
<path d="M101.227 11.9008L101.951 14.0851L104.294 14.0851L102.398 15.4351L103.123 17.6194L101.227 16.2694L99.3309 17.6194L100.055 15.4351L98.1592 14.0851L100.503 14.0851L101.227 11.9008Z" fill="#7E69FF"/>
<path d="M170.82 18.2231L171.544 20.4074L173.888 20.4074L171.992 21.7574L172.716 23.9417L170.82 22.5918L168.924 23.9417L169.648 21.7574L167.753 20.4074L170.096 20.4074L170.82 18.2231Z" fill="#7E69FF"/>
<path d="M147.498 3.84298L148.222 6.02728L150.566 6.02728L148.67 7.37726L149.394 9.56156L147.498 8.21159L145.602 9.56156L146.327 7.37726L144.431 6.02728L146.774 6.02728L147.498 3.84298Z" fill="#7E69FF"/>
<path d="M132.24 15L132.964 17.1843L135.307 17.1843L133.412 18.5343L134.136 20.7186L132.24 19.3686L130.344 20.7186L131.068 18.5343L129.172 17.1843L131.516 17.1843L132.24 15Z" fill="#7E69FF"/>
<path d="M93.2254 63.843L93.9356 66.0273L96.2339 66.0273L94.3745 67.3773L95.0847 69.5616L93.2254 68.2116L91.366 69.5616L92.0762 67.3773L90.2169 66.0273L92.5152 66.0273L93.2254 63.843Z" fill="#7E69FF"/>
<path d="M120.703 66.9421L121.427 69.1265L123.77 69.1265L121.875 70.4764L122.599 72.6607L120.703 71.3108L118.807 72.6607L119.531 70.4764L117.635 69.1265L119.979 69.1265L120.703 66.9421Z" fill="#7E69FF"/>
<path d="M113.136 79.5868L113.86 81.7711L116.203 81.7711L114.307 83.1211L115.032 85.3054L113.136 83.9554L111.24 85.3054L111.964 83.1211L110.068 81.7711L112.412 81.7711L113.136 79.5868Z" fill="#7E69FF"/>
<path d="M139.435 79.5868L140.159 81.7711L142.502 81.7711L140.607 83.1211L141.331 85.3054L139.435 83.9554L137.539 85.3054L138.263 83.1211L136.367 81.7711L138.711 81.7711L139.435 79.5868Z" fill="#7E69FF"/>
<path d="M150.724 40.0413L151.448 42.2256L153.791 42.2256L151.895 43.5756L152.619 45.7599L150.724 44.4099L148.828 45.7599L149.552 43.5756L147.656 42.2256L149.999 42.2256L150.724 40.0413Z" fill="#7E69FF"/>
<path d="M169.207 36.8182L169.932 39.0025L172.275 39.0025L170.379 40.3525L171.103 42.5368L169.207 41.1868L167.312 42.5368L168.036 40.3525L166.14 39.0025L168.483 39.0025L169.207 36.8182Z" fill="#7E69FF"/>
<path d="M117.478 43.2645L118.202 45.4488L120.545 45.4488L118.649 46.7987L119.373 48.9831L117.478 47.6331L115.582 48.9831L116.306 46.7987L114.41 45.4488L116.753 45.4488L117.478 43.2645Z" fill="#7E69FF"/>
<path d="M70.0896 2.35537L70.8137 4.53968L73.1571 4.53968L71.2613 5.88965L71.9854 8.07396L70.0896 6.72398L68.1938 8.07396L68.9179 5.88965L67.0221 4.53968L69.3655 4.53968L70.0896 2.35537Z" fill="#7E69FF"/>
<path d="M87.0848 45L87.8089 47.1843L90.1523 47.1843L88.2565 48.5343L88.9806 50.7186L87.0848 49.3686L85.189 50.7186L85.9131 48.5343L84.0173 47.1843L86.3606 47.1843L87.0848 45Z" fill="#7E69FF"/>
<path d="M155.934 67.0661L156.658 69.2504L159.001 69.2504L157.106 70.6004L157.83 72.7847L155.934 71.4347L154.038 72.7847L154.762 70.6004L152.866 69.2504L155.21 69.2504L155.934 67.0661Z" fill="#7E69FF"/>
<path d="M167.595 80.7025L168.319 82.8868L170.662 82.8868L168.766 84.2368L169.491 86.4211L167.595 85.0711L165.699 86.4211L166.423 84.2368L164.527 82.8868L166.871 82.8868L167.595 80.7025Z" fill="#7E69FF"/>
<path d="M53.2382 37.3085L53.789 36.9415C52.7945 35.0304 52.2973 32.9357 52.2973 30.6576C52.2973 28.8841 52.7333 27.3781 53.6054 26.1397C54.4928 24.9012 55.7397 24.282 57.3462 24.282C58.1877 24.282 58.8991 24.4273 59.4805 24.7178C59.3275 25.574 59.0521 27.0647 58.6543 29.1899C57.7976 33.7614 57.3692 36.3835 57.3692 37.0562C57.3692 38.5087 57.614 39.5942 58.1036 40.3128C57.4304 40.7562 56.8107 41.062 56.2446 41.2302C55.6785 41.3984 54.9442 41.4824 54.0415 41.4824C53.1541 41.4824 52.3432 41.2913 51.6088 40.9091C50.8897 40.5269 50.293 40.0223 49.8187 39.3955C49.3597 38.7533 48.9696 37.9659 48.6483 37.0333C48.0822 35.3973 47.7379 33.318 47.6155 30.7953H47.2484C46.5446 33.9754 46.1927 36.2 46.1927 37.469C46.1927 38.738 46.4222 39.7395 46.8812 40.4734C45.9632 41.1614 45.0069 41.5054 44.0124 41.5054C43.018 41.5054 42.3065 41.2225 41.8781 40.6568C41.4497 40.0758 41.2355 39.2196 41.2355 38.0882C41.2355 36.9415 41.7175 33.7079 42.6814 28.3872L41.465 25.9333C43.1786 24.8324 44.7086 24.282 46.055 24.282C47.4014 24.282 48.4188 24.519 49.1073 24.993C49.7958 25.4517 50.2777 26.132 50.5531 27.0341C50.8285 27.9362 51.0274 28.8917 51.1498 29.9008C51.2875 30.8946 51.517 32.0948 51.8383 33.5015C52.1749 34.9081 52.6415 36.1771 53.2382 37.3085Z" fill="white"/>
<path d="M64.2109 41.5054C63.2164 41.5054 62.5049 41.2225 62.0765 40.6568C61.6481 40.0758 61.434 39.2196 61.434 38.0882C61.434 36.9415 61.9159 33.7079 62.8798 28.3872L61.6634 25.9333C63.3923 24.8172 64.9682 24.2591 66.3911 24.2591C67.5692 24.2591 68.1582 24.9777 68.1582 26.4149C68.1582 26.8888 67.8599 28.6548 67.2632 31.7126C66.6818 34.7552 66.3911 36.5669 66.3911 37.1479C66.3911 38.631 66.6206 39.7395 67.0796 40.4734C66.1616 41.1614 65.2054 41.5054 64.2109 41.5054Z" fill="white"/>
<path d="M80.0392 36.5058L78.8687 34.0977C80.5058 33.0122 81.9822 32.4694 83.298 32.4694C84.3996 32.4694 84.9504 33.0886 84.9504 34.3271C84.9504 34.6787 84.7362 35.7566 84.3078 37.5607C83.8947 39.3496 83.6882 40.718 83.6882 41.6659C83.6882 42.6138 83.8947 43.3172 84.3078 43.7758C83.451 44.4027 82.556 44.7161 81.6227 44.7161C80.6894 44.7161 80.0239 44.4103 79.6261 43.7988C79.2436 43.1872 79.0523 42.2928 79.0523 41.1155C78.2261 41.3601 77.3693 41.4824 76.482 41.4824C74.4012 41.4824 72.7182 40.8403 71.433 39.556C70.1631 38.2717 69.5282 36.3758 69.5282 33.8684C69.5282 32.7981 69.7577 31.7126 70.2167 30.6118C70.6757 29.4957 71.3259 28.4636 72.1674 27.5157C73.0089 26.5678 74.1028 25.7957 75.4492 25.1994C76.8109 24.5878 78.2108 24.282 79.649 24.282C81.1025 24.282 82.2347 24.5496 83.0456 25.0847C83.8718 25.6198 84.2849 26.3614 84.2849 27.3093C84.2849 28.2572 83.9712 28.9988 83.3439 29.5339C82.7319 30.0537 82.0281 30.3136 81.2325 30.3136C80.437 30.3136 79.7179 30.1455 79.0753 29.8091C78.448 29.4574 77.9431 28.9605 77.5606 28.3184C76.7344 28.7159 76.023 29.4957 75.4263 30.6576C74.8296 31.8196 74.5312 33.0351 74.5312 34.3041C74.5312 35.5731 74.776 36.5287 75.2656 37.1709C75.7705 37.7977 76.3978 38.1112 77.1475 38.1112C78.2338 38.1112 79.1977 37.576 80.0392 36.5058Z" fill="white"/>
<path d="M96.8998 37.9506C96.8998 37.3085 97.0069 36.2535 97.2211 34.7857H92.0345C91.8356 35.9324 91.7362 36.7198 91.7362 37.1479C91.7362 38.631 91.9656 39.7395 92.4246 40.4734C91.5067 41.1614 90.5504 41.5054 89.5559 41.5054C88.5614 41.5054 87.85 41.2225 87.4216 40.6568C86.9932 40.0758 86.779 39.2196 86.779 38.0882C86.779 36.9415 87.261 33.7079 88.2248 28.3872L87.0085 25.9333C88.7374 24.8172 90.3133 24.2591 91.7362 24.2591C92.9142 24.2591 93.5033 24.9777 93.5033 26.4149C93.5033 26.843 93.182 28.7236 92.5394 32.0566H97.6801C97.7413 31.6744 97.9632 30.4512 98.3457 28.3872L97.1293 25.9333C98.8582 24.8172 100.434 24.2591 101.857 24.2591C103.035 24.2591 103.624 24.9777 103.624 26.4149C103.624 26.8888 103.326 28.6548 102.729 31.7126C102.148 34.7552 101.857 36.5669 101.857 37.1479C101.857 38.631 102.086 39.7395 102.545 40.4734C101.627 41.1614 100.671 41.5054 99.6767 41.5054C98.6823 41.5054 97.9708 41.2225 97.5424 40.6568C97.114 40.0758 96.8998 39.1738 96.8998 37.9506Z" fill="white"/>
<path d="M104.616 28.2496C104.616 27.0112 104.937 26.0785 105.58 25.4517C106.222 24.8248 106.987 24.5114 107.875 24.5114C108.777 24.5114 110.001 24.6643 111.547 24.97C113.092 25.2758 114.255 25.4364 115.035 25.4517C116.336 25.207 117.575 24.9089 118.753 24.5572C118.875 24.9548 118.937 25.4517 118.937 26.0479C118.937 27.2864 118.577 28.219 117.858 28.8459C117.154 29.4727 116.251 29.7862 115.15 29.7862C114.874 29.7862 114.507 29.7709 114.048 29.7403C113.207 34.1589 112.786 36.6281 112.786 37.1479C112.786 38.631 113.016 39.7395 113.475 40.4734C112.557 41.1614 111.6 41.5054 110.606 41.5054C109.611 41.5054 108.9 41.2225 108.471 40.6568C108.043 40.0758 107.829 39.2196 107.829 38.0882C107.829 36.9415 108.273 33.899 109.16 28.9605C107.431 29.1899 105.978 29.4498 104.8 29.7403C104.677 29.3581 104.616 28.8612 104.616 28.2496Z" fill="white"/>
<path d="M122.143 41.5054C121.133 41.5054 120.414 41.2225 119.986 40.6568C119.558 40.0758 119.343 39.2196 119.343 38.0882C119.343 36.9415 119.825 33.7079 120.789 28.3872L119.573 25.9333C121.302 24.8172 122.878 24.2591 124.301 24.2591C125.479 24.2591 126.068 24.9777 126.068 26.4149C126.068 26.843 125.769 28.6318 125.173 31.7814C124.591 34.931 124.301 36.9339 124.301 37.7901H126.779C127.942 37.6219 129.112 37.3238 130.29 36.8957C130.382 37.1709 130.428 37.5455 130.428 38.0194C130.428 38.9215 130.16 39.7242 129.625 40.4275C129.105 41.1308 128.378 41.4824 127.445 41.4824C126.817 41.4824 125.731 41.3143 124.186 40.9779C123.543 41.3295 122.862 41.5054 122.143 41.5054Z" fill="white"/>
<path d="M133.362 36.781C133.346 36.4752 133.316 35.8331 133.27 34.8546C133.224 33.876 133.178 33.1345 133.132 32.63C133.102 32.1101 133.017 31.4068 132.88 30.52C132.757 29.6333 132.597 28.9223 132.398 28.3872C131.908 26.9806 131.22 25.9715 130.332 25.3599C131.526 24.6413 132.49 24.282 133.224 24.282C133.974 24.282 134.593 24.4043 135.083 24.649C135.573 24.8936 135.97 25.1917 136.276 25.5434C136.598 25.8798 136.881 26.3537 137.125 26.9653C137.37 27.5769 137.554 28.1349 137.676 28.6395C137.799 29.144 137.898 29.7938 137.975 30.5888C138.066 31.3839 138.12 32.026 138.135 32.5153C138.166 33.0045 138.189 33.6543 138.204 34.4647C138.235 35.2597 138.258 35.8101 138.273 36.1159H138.594C139.191 34.694 139.734 33.0657 140.224 31.231C140.729 29.3963 140.981 27.9362 140.981 26.8506C140.981 26.3155 140.866 25.8186 140.637 25.3599C141.784 24.6413 142.802 24.282 143.689 24.282C145.372 24.282 146.214 25.1688 146.214 26.9424C146.214 27.8444 145.869 29.3581 145.181 31.4833C144.492 33.6085 143.681 35.6649 142.748 37.6525C141.539 40.2364 140.292 42.1017 139.007 43.2484C137.737 44.395 136.1 44.9684 134.096 44.9684C133.209 44.9684 132.405 44.7926 131.686 44.4409C130.814 44.0281 130.378 43.3324 130.378 42.3539C130.378 41.3754 130.753 40.3663 131.503 39.3267C131.839 39.8159 132.291 40.1981 132.857 40.4734C133.423 40.7333 134.043 40.8632 134.716 40.8632C135.404 40.8632 136.047 40.6798 136.644 40.3128C137.255 39.9306 137.692 39.3878 137.952 38.6845C137.141 38.8833 136.399 38.9826 135.726 38.9826C134.272 38.9826 133.484 38.2488 133.362 36.781Z" fill="white"/>
<path d="M79.5164 47.5878C81.536 47.5878 83.0507 47.8248 84.0605 48.2988C85.0702 48.7574 85.5751 49.499 85.5751 50.5233C85.5751 51.5324 85.2615 52.3045 84.6342 52.8397C84.0222 53.3595 83.3184 53.6194 82.5228 53.6194C81.7272 53.6194 81.0081 53.4207 80.3656 53.0231C79.7383 52.6103 79.3022 52.0676 79.0574 51.3948C78.4913 51.3948 77.9482 51.5859 77.428 51.9682C76.9231 52.3351 76.6018 52.8167 76.4641 53.413C79.4935 54.1469 81.666 55.0031 82.9818 55.9816C84.2976 56.9601 84.9555 58.2138 84.9555 59.7428C84.9555 61.2717 84.2594 62.4948 82.8671 63.4122C81.4901 64.3295 79.6235 64.7882 77.2673 64.7882C74.9265 64.7882 73.2664 64.4671 72.2873 63.825C71.3081 63.1828 70.8185 62.3343 70.8185 61.2793C70.8185 60.2244 71.1474 59.2535 71.8053 58.3667C72.1266 59.0547 72.7386 59.674 73.6413 60.2244C74.5593 60.7748 75.462 61.05 76.3494 61.05C77.9864 61.05 79.0268 60.5302 79.4705 59.4905C76.9307 59.1541 74.9953 58.4508 73.6642 57.3806C72.3332 56.295 71.6676 54.9878 71.6676 53.4589C71.6676 52.4345 71.943 51.5248 72.4938 50.7297C73.0446 49.9194 73.7484 49.3002 74.6052 48.8721C76.2882 48.0159 77.9252 47.5878 79.5164 47.5878Z" fill="white"/>
<path d="M86.5041 57.1742C86.5041 56.1039 86.7336 55.0184 87.1925 53.9176C87.6515 52.8014 88.3018 51.7694 89.1433 50.8215C89.9848 49.8736 91.0787 49.1014 92.4251 48.5052C93.7868 47.8936 95.1867 47.5878 96.6249 47.5878C98.0784 47.5878 99.2105 47.8554 100.021 48.3905C100.848 48.9256 101.261 49.6671 101.261 50.6151C101.261 51.563 100.947 52.3045 100.32 52.8397C99.7078 53.3595 99.004 53.6194 98.2084 53.6194C97.4128 53.6194 96.6937 53.4512 96.0511 53.1149C95.4238 52.7632 94.9189 52.2663 94.5364 51.6242C93.7103 52.0217 92.9988 52.8014 92.4021 53.9634C91.8054 55.1254 91.5071 56.295 91.5071 57.4723C91.5071 58.6343 91.6983 59.5593 92.0808 60.2473C92.4633 60.92 93.0065 61.2564 93.7103 61.2564C94.4141 61.2564 95.0337 60.8971 95.5692 60.1785C96.12 59.4599 96.3954 58.5961 96.3954 57.587C97.9407 57.587 99.0422 57.7093 99.7001 57.9539C100.373 58.1986 100.71 58.726 100.71 59.5364C100.71 60.8054 100.021 61.9979 98.6444 63.114C97.2675 64.2302 95.5386 64.7882 93.4578 64.7882C91.377 64.7882 89.6941 64.1461 88.4089 62.8618C87.139 61.5775 86.5041 59.6816 86.5041 57.1742Z" fill="white"/>
<path d="M112.979 61.2564C112.979 60.6143 113.086 59.5593 113.301 58.0915H108.114C107.915 59.2382 107.816 60.0256 107.816 60.4537C107.816 61.9368 108.045 63.0452 108.504 63.7791C107.586 64.4671 106.63 64.8112 105.635 64.8112C104.641 64.8112 103.929 64.5283 103.501 63.9626C103.073 63.3816 102.858 62.5254 102.858 61.394C102.858 60.2473 103.34 57.0136 104.304 51.693L103.088 49.239C104.817 48.1229 106.393 47.5649 107.816 47.5649C108.994 47.5649 109.583 48.2835 109.583 49.7207C109.583 50.1488 109.261 52.0293 108.619 55.3624H113.76C113.821 54.9802 114.043 53.757 114.425 51.693L113.209 49.239C114.938 48.1229 116.513 47.5649 117.936 47.5649C119.114 47.5649 119.703 48.2835 119.703 49.7207C119.703 50.1946 119.405 51.9605 118.808 55.0184C118.227 58.0609 117.936 59.8727 117.936 60.4537C117.936 61.9368 118.166 63.0452 118.625 63.7791C117.707 64.4671 116.751 64.8112 115.756 64.8112C114.762 64.8112 114.05 64.5283 113.622 63.9626C113.193 63.3816 112.979 62.4795 112.979 61.2564Z" fill="white"/>
<path d="M120.971 57.1971C120.971 54.2921 121.782 51.9682 123.403 50.2252C125.025 48.4669 127.244 47.5878 130.059 47.5878C130.961 47.5878 131.604 47.7713 131.987 48.1382C132.384 48.4899 132.583 49.0403 132.583 49.7895C132.583 49.8965 132.568 50.1029 132.537 50.4087C133.103 49.95 133.731 49.7207 134.419 49.7207C135.353 49.7207 136.148 50.1411 136.806 50.982C137.479 51.8076 137.816 53.0078 137.816 54.5826C137.816 56.1574 137.563 57.6023 137.058 58.9171C136.554 60.232 135.88 61.3099 135.039 62.1508C134.213 62.9917 133.264 63.6415 132.193 64.1002C131.137 64.5589 130.044 64.7882 128.911 64.7882C126.463 64.7882 124.528 64.0926 123.105 62.7012C121.682 61.2946 120.971 59.4599 120.971 57.1971ZM132.423 58.275C131.443 57.0824 130.954 55.7981 130.954 54.4221C130.954 53.0461 131.26 51.9376 131.872 51.0967C131.596 51.0508 131.321 51.0279 131.046 51.0279C129.959 51.0279 129.018 51.3566 128.223 52.014C126.723 53.2372 125.974 54.9343 125.974 57.1054C125.974 58.3438 126.249 59.3758 126.8 60.2014C127.351 61.0271 128.116 61.4399 129.095 61.4399C129.845 61.4399 130.525 61.1494 131.137 60.5684C131.765 59.9721 132.193 59.2076 132.423 58.275Z" fill="white"/>
<path d="M138.743 57.1971C138.743 54.2921 139.554 51.9682 141.176 50.2252C142.798 48.4669 145.016 47.5878 147.831 47.5878C148.734 47.5878 149.377 47.7713 149.759 48.1382C150.157 48.4899 150.356 49.0403 150.356 49.7895C150.356 49.8965 150.341 50.1029 150.31 50.4087C150.876 49.95 151.503 49.7207 152.192 49.7207C153.125 49.7207 153.921 50.1411 154.579 50.982C155.252 51.8076 155.588 53.0078 155.588 54.5826C155.588 56.1574 155.336 57.6023 154.831 58.9171C154.326 60.232 153.653 61.3099 152.811 62.1508C151.985 62.9917 151.037 63.6415 149.966 64.1002C148.91 64.5589 147.816 64.7882 146.684 64.7882C144.236 64.7882 142.3 64.0926 140.878 62.7012C139.455 61.2946 138.743 59.4599 138.743 57.1971ZM150.195 58.275C149.216 57.0824 148.726 55.7981 148.726 54.4221C148.726 53.0461 149.032 51.9376 149.644 51.0967C149.369 51.0508 149.094 51.0279 148.818 51.0279C147.732 51.0279 146.791 51.3566 145.995 52.014C144.496 53.2372 143.746 54.9343 143.746 57.1054C143.746 58.3438 144.022 59.3758 144.573 60.2014C145.123 61.0271 145.888 61.4399 146.867 61.4399C147.617 61.4399 148.298 61.1494 148.91 60.5684C149.537 59.9721 149.966 59.2076 150.195 58.275Z" fill="white"/>
<path d="M160.119 64.8112C159.109 64.8112 158.39 64.5283 157.962 63.9626C157.533 63.3816 157.319 62.5254 157.319 61.394C157.319 60.2473 157.801 57.0136 158.765 51.693L157.549 49.239C159.277 48.1229 160.853 47.5649 162.276 47.5649C163.454 47.5649 164.043 48.2835 164.043 49.7207C164.043 50.1488 163.745 51.9376 163.148 55.0872C162.567 58.2368 162.276 60.2397 162.276 61.0959H164.755C165.918 60.9277 167.088 60.6295 168.266 60.2014C168.358 60.4767 168.404 60.8512 168.404 61.3252C168.404 62.2273 168.136 63.03 167.601 63.7333C167.08 64.4366 166.354 64.7882 165.42 64.7882C164.793 64.7882 163.707 64.62 162.161 64.2837C161.519 64.6353 160.838 64.8112 160.119 64.8112Z" fill="white"/>
</svg>