<svg width="1320" height="102" viewBox="0 0 1320 102" fill="none" xmlns="http://www.w3.org/2000/svg">
<rect width="1320" height="101" fill="#02001F"/>
<path d="M225.25 10L225.98 12.2457H228.341L226.431 13.6336L227.16 15.8793L225.25 14.4914L223.34 15.8793L224.069 13.6336L222.159 12.2457H224.52L225.25 10Z" fill="#7E69FF"/>
<path d="M257.25 52L257.98 54.2457H260.341L258.431 55.6336L259.16 57.8793L257.25 56.4914L255.34 57.8793L256.069 55.6336L254.159 54.2457H256.52L257.25 52Z" fill="#7E69FF"/>
<path d="M266.25 80L266.98 82.2457H269.341L267.431 83.6336L268.16 85.8793L266.25 84.4914L264.34 85.8793L265.069 83.6336L263.159 82.2457H265.52L266.25 80Z" fill="#7E69FF"/>
<path d="M229.25 84L229.98 86.2457H232.341L230.431 87.6336L231.16 89.8793L229.25 88.4914L227.34 89.8793L228.069 87.6336L226.159 86.2457H228.52L229.25 84Z" fill="#7E69FF"/>
<path d="M196.25 9L196.98 11.2457H199.341L197.431 12.6336L198.16 14.8793L196.25 13.4914L194.34 14.8793L195.069 12.6336L193.159 11.2457H195.52L196.25 9Z" fill="#7E69FF"/>
<path d="M193.25 62L193.98 64.2457H196.341L194.431 65.6336L195.16 67.8793L193.25 66.4914L191.34 67.8793L192.069 65.6336L190.159 64.2457H192.52L193.25 62Z" fill="#7E69FF"/>
<path d="M204.25 34L204.98 36.2457H207.341L205.431 37.6336L206.16 39.8793L204.25 38.4914L202.34 39.8793L203.069 37.6336L201.159 36.2457H203.52L204.25 34Z" fill="#7E69FF"/>
<path d="M200.25 83L200.98 85.2457H203.341L201.431 86.6336L202.16 88.8793L200.25 87.4914L198.34 88.8793L199.069 86.6336L197.159 85.2457H199.52L200.25 83Z" fill="#7E69FF"/>
<path d="M254.25 24L254.98 26.2457H257.341L255.431 27.6336L256.16 29.8793L254.25 28.4914L252.34 29.8793L253.069 27.6336L251.159 26.2457H253.52L254.25 24Z" fill="#7E69FF"/>
<path d="M222.25 56L222.98 58.2457H225.341L223.431 59.6336L224.16 61.8793L222.25 60.4914L220.34 61.8793L221.069 59.6336L219.159 58.2457H221.52L222.25 56Z" fill="#7E69FF"/>
<path d="M300.25 89L300.98 91.2457H303.341L301.431 92.6336L302.16 94.8793L300.25 93.4914L298.34 94.8793L299.069 92.6336L297.159 91.2457H299.52L300.25 89Z" fill="#7E69FF"/>
<path d="M288.25 48L288.98 50.2457H291.341L289.431 51.6336L290.16 53.8793L288.25 52.4914L286.34 53.8793L287.069 51.6336L285.159 50.2457H287.52L288.25 48Z" fill="#7E69FF"/>
<path d="M319.25 67L319.98 69.2457H322.341L320.431 70.6336L321.16 72.8793L319.25 71.4914L317.34 72.8793L318.069 70.6336L316.159 69.2457H318.52L319.25 67Z" fill="#7E69FF"/>
<path d="M310.25 27L310.98 29.2457H313.341L311.431 30.6336L312.16 32.8793L310.25 31.4914L308.34 32.8793L309.069 30.6336L307.159 29.2457H309.52L310.25 27Z" fill="#7E69FF"/>
<path d="M285.25 9L285.98 11.2457H288.341L286.431 12.6336L287.16 14.8793L285.25 13.4914L283.34 14.8793L284.069 12.6336L282.159 11.2457H284.52L285.25 9Z" fill="#7E69FF"/>
<path d="M354.25 9L354.98 11.2457H357.341L355.431 12.6336L356.16 14.8793L354.25 13.4914L352.34 14.8793L353.069 12.6336L351.159 11.2457H353.52L354.25 9Z" fill="#7E69FF"/>
<path d="M379.25 51L379.98 53.2457H382.341L380.431 54.6336L381.16 56.8793L379.25 55.4914L377.34 56.8793L378.069 54.6336L376.159 53.2457H378.52L379.25 51Z" fill="#7E69FF"/>
<path d="M351.25 62L351.98 64.2457H354.341L352.431 65.6336L353.16 67.8793L351.25 66.4914L349.34 67.8793L350.069 65.6336L348.159 64.2457H350.52L351.25 62Z" fill="#7E69FF"/>
<path d="M383.25 75L383.98 77.2457H386.341L384.431 78.6336L385.16 80.8793L383.25 79.4914L381.34 80.8793L382.069 78.6336L380.159 77.2457H382.52L383.25 75Z" fill="#7E69FF"/>
<path d="M358.25 83L358.98 85.2457H361.341L359.431 86.6336L360.16 88.8793L358.25 87.4914L356.34 88.8793L357.069 86.6336L355.159 85.2457H357.52L358.25 83Z" fill="#7E69FF"/>
<path d="M379.25 26L379.98 28.2457H382.341L380.431 29.6336L381.16 31.8793L379.25 30.4914L377.34 31.8793L378.069 29.6336L376.159 28.2457H378.52L379.25 26Z" fill="#7E69FF"/>
<path d="M344.25 38L344.98 40.2457H347.341L345.431 41.6336L346.16 43.8793L344.25 42.4914L342.34 43.8793L343.069 41.6336L341.159 40.2457H343.52L344.25 38Z" fill="#7E69FF"/>
<path d="M429.25 88L429.98 90.2457H432.341L430.431 91.6336L431.16 93.8793L429.25 92.4914L427.34 93.8793L428.069 91.6336L426.159 90.2457H428.52L429.25 88Z" fill="#7E69FF"/>
<path d="M417.25 47L417.98 49.2457H420.341L418.431 50.6336L419.16 52.8793L417.25 51.4914L415.34 52.8793L416.069 50.6336L414.159 49.2457H416.52L417.25 47Z" fill="#7E69FF"/>
<path d="M448.25 66L448.98 68.2457H451.341L449.431 69.6336L450.16 71.8793L448.25 70.4914L446.34 71.8793L447.069 69.6336L445.159 68.2457H447.52L448.25 66Z" fill="#7E69FF"/>
<path d="M439.25 26L439.98 28.2457H442.341L440.431 29.6336L441.16 31.8793L439.25 30.4914L437.34 31.8793L438.069 29.6336L436.159 28.2457H438.52L439.25 26Z" fill="#7E69FF"/>
<path d="M414.25 8L414.98 10.2457H417.341L415.431 11.6336L416.16 13.8793L414.25 12.4914L412.34 13.8793L413.069 11.6336L411.159 10.2457H413.52L414.25 8Z" fill="#7E69FF"/>
<path d="M489.25 11L489.98 13.2457H492.341L490.431 14.6336L491.16 16.8793L489.25 15.4914L487.34 16.8793L488.069 14.6336L486.159 13.2457H488.52L489.25 11Z" fill="#7E69FF"/>
<path d="M514.25 53L514.98 55.2457H517.341L515.431 56.6336L516.16 58.8793L514.25 57.4914L512.34 58.8793L513.069 56.6336L511.159 55.2457H513.52L514.25 53Z" fill="#7E69FF"/>
<path d="M486.25 64L486.98 66.2457H489.341L487.431 67.6336L488.16 69.8793L486.25 68.4914L484.34 69.8793L485.069 67.6336L483.159 66.2457H485.52L486.25 64Z" fill="#7E69FF"/>
<path d="M518.25 77L518.98 79.2457H521.341L519.431 80.6336L520.16 82.8793L518.25 81.4914L516.34 82.8793L517.069 80.6336L515.159 79.2457H517.52L518.25 77Z" fill="#7E69FF"/>
<path d="M493.25 85L493.98 87.2457H496.341L494.431 88.6336L495.16 90.8793L493.25 89.4914L491.34 90.8793L492.069 88.6336L490.159 87.2457H492.52L493.25 85Z" fill="#7E69FF"/>
<path d="M514.25 28L514.98 30.2457H517.341L515.431 31.6336L516.16 33.8793L514.25 32.4914L512.34 33.8793L513.069 31.6336L511.159 30.2457H513.52L514.25 28Z" fill="#7E69FF"/>
<path d="M479.25 40L479.98 42.2457H482.341L480.431 43.6336L481.16 45.8793L479.25 44.4914L477.34 45.8793L478.069 43.6336L476.159 42.2457H478.52L479.25 40Z" fill="#7E69FF"/>
<path d="M564.25 90L564.98 92.2457H567.341L565.431 93.6336L566.16 95.8793L564.25 94.4914L562.34 95.8793L563.069 93.6336L561.159 92.2457H563.52L564.25 90Z" fill="#7E69FF"/>
<path d="M552.25 49L552.98 51.2457H555.341L553.431 52.6336L554.16 54.8793L552.25 53.4914L550.34 54.8793L551.069 52.6336L549.159 51.2457H551.52L552.25 49Z" fill="#7E69FF"/>
<path d="M583.25 68L583.98 70.2457H586.341L584.431 71.6336L585.16 73.8793L583.25 72.4914L581.34 73.8793L582.069 71.6336L580.159 70.2457H582.52L583.25 68Z" fill="#7E69FF"/>
<path d="M574.25 28L574.98 30.2457H577.341L575.431 31.6336L576.16 33.8793L574.25 32.4914L572.34 33.8793L573.069 31.6336L571.159 30.2457H573.52L574.25 28Z" fill="#7E69FF"/>
<path d="M549.25 10L549.98 12.2457H552.341L550.431 13.6336L551.16 15.8793L549.25 14.4914L547.34 15.8793L548.069 13.6336L546.159 12.2457H548.52L549.25 10Z" fill="#7E69FF"/>
<path d="M618.25 14L618.98 16.2457H621.341L619.431 17.6336L620.16 19.8793L618.25 18.4914L616.34 19.8793L617.069 17.6336L615.159 16.2457H617.52L618.25 14Z" fill="#7E69FF"/>
<path d="M643.25 56L643.98 58.2457H646.341L644.431 59.6336L645.16 61.8793L643.25 60.4914L641.34 61.8793L642.069 59.6336L640.159 58.2457H642.52L643.25 56Z" fill="#7E69FF"/>
<path d="M615.25 67L615.98 69.2457H618.341L616.431 70.6336L617.16 72.8793L615.25 71.4914L613.34 72.8793L614.069 70.6336L612.159 69.2457H614.52L615.25 67Z" fill="#7E69FF"/>
<path d="M647.25 80L647.98 82.2457H650.341L648.431 83.6336L649.16 85.8793L647.25 84.4914L645.34 85.8793L646.069 83.6336L644.159 82.2457H646.52L647.25 80Z" fill="#7E69FF"/>
<path d="M622.25 88L622.98 90.2457H625.341L623.431 91.6336L624.16 93.8793L622.25 92.4914L620.34 93.8793L621.069 91.6336L619.159 90.2457H621.52L622.25 88Z" fill="#7E69FF"/>
<path d="M643.25 31L643.98 33.2457H646.341L644.431 34.6336L645.16 36.8793L643.25 35.4914L641.34 36.8793L642.069 34.6336L640.159 33.2457H642.52L643.25 31Z" fill="#7E69FF"/>
<path d="M608.25 43L608.98 45.2457H611.341L609.431 46.6336L610.16 48.8793L608.25 47.4914L606.34 48.8793L607.069 46.6336L605.159 45.2457H607.52L608.25 43Z" fill="#7E69FF"/>
<path d="M693.25 93L693.98 95.2457H696.341L694.431 96.6336L695.16 98.8793L693.25 97.4914L691.34 98.8793L692.069 96.6336L690.159 95.2457H692.52L693.25 93Z" fill="#7E69FF"/>
<path d="M681.25 52L681.98 54.2457H684.341L682.431 55.6336L683.16 57.8793L681.25 56.4914L679.34 57.8793L680.069 55.6336L678.159 54.2457H680.52L681.25 52Z" fill="#7E69FF"/>
<path d="M712.25 71L712.98 73.2457H715.341L713.431 74.6336L714.16 76.8793L712.25 75.4914L710.34 76.8793L711.069 74.6336L709.159 73.2457H711.52L712.25 71Z" fill="#7E69FF"/>
<path d="M703.25 31L703.98 33.2457H706.341L704.431 34.6336L705.16 36.8793L703.25 35.4914L701.34 36.8793L702.069 34.6336L700.159 33.2457H702.52L703.25 31Z" fill="#7E69FF"/>
<path d="M678.25 13L678.98 15.2457H681.341L679.431 16.6336L680.16 18.8793L678.25 17.4914L676.34 18.8793L677.069 16.6336L675.159 15.2457H677.52L678.25 13Z" fill="#7E69FF"/>
<path d="M743.25 11L743.98 13.2457H746.341L744.431 14.6336L745.16 16.8793L743.25 15.4914L741.34 16.8793L742.069 14.6336L740.159 13.2457H742.52L743.25 11Z" fill="#7E69FF"/>
<path d="M768.25 53L768.98 55.2457H771.341L769.431 56.6336L770.16 58.8793L768.25 57.4914L766.34 58.8793L767.069 56.6336L765.159 55.2457H767.52L768.25 53Z" fill="#7E69FF"/>
<path d="M740.25 64L740.98 66.2457H743.341L741.431 67.6336L742.16 69.8793L740.25 68.4914L738.34 69.8793L739.069 67.6336L737.159 66.2457H739.52L740.25 64Z" fill="#7E69FF"/>
<path d="M772.25 77L772.98 79.2457H775.341L773.431 80.6336L774.16 82.8793L772.25 81.4914L770.34 82.8793L771.069 80.6336L769.159 79.2457H771.52L772.25 77Z" fill="#7E69FF"/>
<path d="M747.25 85L747.98 87.2457H750.341L748.431 88.6336L749.16 90.8793L747.25 89.4914L745.34 90.8793L746.069 88.6336L744.159 87.2457H746.52L747.25 85Z" fill="#7E69FF"/>
<path d="M768.25 28L768.98 30.2457H771.341L769.431 31.6336L770.16 33.8793L768.25 32.4914L766.34 33.8793L767.069 31.6336L765.159 30.2457H767.52L768.25 28Z" fill="#7E69FF"/>
<path d="M733.25 40L733.98 42.2457H736.341L734.431 43.6336L735.16 45.8793L733.25 44.4914L731.34 45.8793L732.069 43.6336L730.159 42.2457H732.52L733.25 40Z" fill="#7E69FF"/>
<path d="M818.25 90L818.98 92.2457H821.341L819.431 93.6336L820.16 95.8793L818.25 94.4914L816.34 95.8793L817.069 93.6336L815.159 92.2457H817.52L818.25 90Z" fill="#7E69FF"/>
<path d="M806.25 49L806.98 51.2457H809.341L807.431 52.6336L808.16 54.8793L806.25 53.4914L804.34 54.8793L805.069 52.6336L803.159 51.2457H805.52L806.25 49Z" fill="#7E69FF"/>
<path d="M837.25 68L837.98 70.2457H840.341L838.431 71.6336L839.16 73.8793L837.25 72.4914L835.34 73.8793L836.069 71.6336L834.159 70.2457H836.52L837.25 68Z" fill="#7E69FF"/>
<path d="M828.25 28L828.98 30.2457H831.341L829.431 31.6336L830.16 33.8793L828.25 32.4914L826.34 33.8793L827.069 31.6336L825.159 30.2457H827.52L828.25 28Z" fill="#7E69FF"/>
<path d="M803.25 10L803.98 12.2457H806.341L804.431 13.6336L805.16 15.8793L803.25 14.4914L801.34 15.8793L802.069 13.6336L800.159 12.2457H802.52L803.25 10Z" fill="#7E69FF"/>
<path d="M878.25 12L878.98 14.2457H881.341L879.431 15.6336L880.16 17.8793L878.25 16.4914L876.34 17.8793L877.069 15.6336L875.159 14.2457H877.52L878.25 12Z" fill="#7E69FF"/>
<path d="M903.25 54L903.98 56.2457H906.341L904.431 57.6336L905.16 59.8793L903.25 58.4914L901.34 59.8793L902.069 57.6336L900.159 56.2457H902.52L903.25 54Z" fill="#7E69FF"/>
<path d="M875.25 65L875.98 67.2457H878.341L876.431 68.6336L877.16 70.8793L875.25 69.4914L873.34 70.8793L874.069 68.6336L872.159 67.2457H874.52L875.25 65Z" fill="#7E69FF"/>
<path d="M907.25 78L907.98 80.2457H910.341L908.431 81.6336L909.16 83.8793L907.25 82.4914L905.34 83.8793L906.069 81.6336L904.159 80.2457H906.52L907.25 78Z" fill="#7E69FF"/>
<path d="M882.25 86L882.98 88.2457H885.341L883.431 89.6336L884.16 91.8793L882.25 90.4914L880.34 91.8793L881.069 89.6336L879.159 88.2457H881.52L882.25 86Z" fill="#7E69FF"/>
<path d="M903.25 29L903.98 31.2457H906.341L904.431 32.6336L905.16 34.8793L903.25 33.4914L901.34 34.8793L902.069 32.6336L900.159 31.2457H902.52L903.25 29Z" fill="#7E69FF"/>
<path d="M868.25 41L868.98 43.2457H871.341L869.431 44.6336L870.16 46.8793L868.25 45.4914L866.34 46.8793L867.069 44.6336L865.159 43.2457H867.52L868.25 41Z" fill="#7E69FF"/>
<path d="M953.25 91L953.98 93.2457H956.341L954.431 94.6336L955.16 96.8793L953.25 95.4914L951.34 96.8793L952.069 94.6336L950.159 93.2457H952.52L953.25 91Z" fill="#7E69FF"/>
<path d="M941.25 50L941.98 52.2457H944.341L942.431 53.6336L943.16 55.8793L941.25 54.4914L939.34 55.8793L940.069 53.6336L938.159 52.2457H940.52L941.25 50Z" fill="#7E69FF"/>
<path d="M972.25 69L972.98 71.2457H975.341L973.431 72.6336L974.16 74.8793L972.25 73.4914L970.34 74.8793L971.069 72.6336L969.159 71.2457H971.52L972.25 69Z" fill="#7E69FF"/>
<path d="M963.25 29L963.98 31.2457H966.341L964.431 32.6336L965.16 34.8793L963.25 33.4914L961.34 34.8793L962.069 32.6336L960.159 31.2457H962.52L963.25 29Z" fill="#7E69FF"/>
<path d="M938.25 11L938.98 13.2457H941.341L939.431 14.6336L940.16 16.8793L938.25 15.4914L936.34 16.8793L937.069 14.6336L935.159 13.2457H937.52L938.25 11Z" fill="#7E69FF"/>
<path d="M1003.25 12L1003.98 14.2457H1006.34L1004.43 15.6336L1005.16 17.8793L1003.25 16.4914L1001.34 17.8793L1002.07 15.6336L1000.16 14.2457H1002.52L1003.25 12Z" fill="#7E69FF"/>
<path d="M1028.25 54L1028.98 56.2457H1031.34L1029.43 57.6336L1030.16 59.8793L1028.25 58.4914L1026.34 59.8793L1027.07 57.6336L1025.16 56.2457H1027.52L1028.25 54Z" fill="#7E69FF"/>
<path d="M1000.25 65L1000.98 67.2457H1003.34L1001.43 68.6336L1002.16 70.8793L1000.25 69.4914L998.34 70.8793L999.069 68.6336L997.159 67.2457H999.52L1000.25 65Z" fill="#7E69FF"/>
<path d="M1032.25 78L1032.98 80.2457H1035.34L1033.43 81.6336L1034.16 83.8793L1032.25 82.4914L1030.34 83.8793L1031.07 81.6336L1029.16 80.2457H1031.52L1032.25 78Z" fill="#7E69FF"/>
<path d="M1007.25 86L1007.98 88.2457H1010.34L1008.43 89.6336L1009.16 91.8793L1007.25 90.4914L1005.34 91.8793L1006.07 89.6336L1004.16 88.2457H1006.52L1007.25 86Z" fill="#7E69FF"/>
<path d="M1028.25 29L1028.98 31.2457H1031.34L1029.43 32.6336L1030.16 34.8793L1028.25 33.4914L1026.34 34.8793L1027.07 32.6336L1025.16 31.2457H1027.52L1028.25 29Z" fill="#7E69FF"/>
<path d="M993.25 41L993.98 43.2457H996.341L994.431 44.6336L995.16 46.8793L993.25 45.4914L991.34 46.8793L992.069 44.6336L990.159 43.2457H992.52L993.25 41Z" fill="#7E69FF"/>
<path d="M1078.25 91L1078.98 93.2457H1081.34L1079.43 94.6336L1080.16 96.8793L1078.25 95.4914L1076.34 96.8793L1077.07 94.6336L1075.16 93.2457H1077.52L1078.25 91Z" fill="#7E69FF"/>
<path d="M1066.25 50L1066.98 52.2457H1069.34L1067.43 53.6336L1068.16 55.8793L1066.25 54.4914L1064.34 55.8793L1065.07 53.6336L1063.16 52.2457H1065.52L1066.25 50Z" fill="#7E69FF"/>
<path d="M1097.25 69L1097.98 71.2457H1100.34L1098.43 72.6336L1099.16 74.8793L1097.25 73.4914L1095.34 74.8793L1096.07 72.6336L1094.16 71.2457H1096.52L1097.25 69Z" fill="#7E69FF"/>
<path d="M1088.25 29L1088.98 31.2457H1091.34L1089.43 32.6336L1090.16 34.8793L1088.25 33.4914L1086.34 34.8793L1087.07 32.6336L1085.16 31.2457H1087.52L1088.25 29Z" fill="#7E69FF"/>
<path d="M1063.25 11L1063.98 13.2457H1066.34L1064.43 14.6336L1065.16 16.8793L1063.25 15.4914L1061.34 16.8793L1062.07 14.6336L1060.16 13.2457H1062.52L1063.25 11Z" fill="#7E69FF"/>
<path d="M1101.25 11L1101.98 13.2457H1104.34L1102.43 14.6336L1103.16 16.8793L1101.25 15.4914L1099.34 16.8793L1100.07 14.6336L1098.16 13.2457H1100.52L1101.25 11Z" fill="#7E69FF"/>
<path d="M1126.25 53L1126.98 55.2457H1129.34L1127.43 56.6336L1128.16 58.8793L1126.25 57.4914L1124.34 58.8793L1125.07 56.6336L1123.16 55.2457H1125.52L1126.25 53Z" fill="#7E69FF"/>
<path d="M1130.25 77L1130.98 79.2457H1133.34L1131.43 80.6336L1132.16 82.8793L1130.25 81.4914L1128.34 82.8793L1129.07 80.6336L1127.16 79.2457H1129.52L1130.25 77Z" fill="#7E69FF"/>
<path d="M1105.25 85L1105.98 87.2457H1108.34L1106.43 88.6336L1107.16 90.8793L1105.25 89.4914L1103.34 90.8793L1104.07 88.6336L1102.16 87.2457H1104.52L1105.25 85Z" fill="#7E69FF"/>
<path d="M1126.25 28L1126.98 30.2457H1129.34L1127.43 31.6336L1128.16 33.8793L1126.25 32.4914L1124.34 33.8793L1125.07 31.6336L1123.16 30.2457H1125.52L1126.25 28Z" fill="#7E69FF"/>
<path d="M1176.25 90L1176.98 92.2457H1179.34L1177.43 93.6336L1178.16 95.8793L1176.25 94.4914L1174.34 95.8793L1175.07 93.6336L1173.16 92.2457H1175.52L1176.25 90Z" fill="#7E69FF"/>
<path d="M1164.25 49L1164.98 51.2457H1167.34L1165.43 52.6336L1166.16 54.8793L1164.25 53.4914L1162.34 54.8793L1163.07 52.6336L1161.16 51.2457H1163.52L1164.25 49Z" fill="#7E69FF"/>
<path d="M1195.25 68L1195.98 70.2457H1198.34L1196.43 71.6336L1197.16 73.8793L1195.25 72.4914L1193.34 73.8793L1194.07 71.6336L1192.16 70.2457H1194.52L1195.25 68Z" fill="#7E69FF"/>
<path d="M1186.25 28L1186.98 30.2457H1189.34L1187.43 31.6336L1188.16 33.8793L1186.25 32.4914L1184.34 33.8793L1185.07 31.6336L1183.16 30.2457H1185.52L1186.25 28Z" fill="#7E69FF"/>
<path d="M1161.25 10L1161.98 12.2457H1164.34L1162.43 13.6336L1163.16 15.8793L1161.25 14.4914L1159.34 15.8793L1160.07 13.6336L1158.16 12.2457H1160.52L1161.25 10Z" fill="#7E69FF"/>
<path d="M1204 0V102" stroke="#3765A9"/>
</svg>
